<?xml version="1.0" encoding="UTF-8" standalone="no"?>
<!DOCTYPE svg PUBLIC "-//W3C//DTD SVG 1.1//EN" "http://www.w3.org/Graphics/SVG/1.1/DTD/svg11.dtd">
<svg width="100%" height="100%" viewBox="0 0 471 174" version="1.1" xmlns="http://www.w3.org/2000/svg" xmlns:xlink="http://www.w3.org/1999/xlink" xml:space="preserve" xmlns:serif="http://www.serif.com/" style="fill-rule:evenodd;clip-rule:evenodd;stroke-linejoin:round;stroke-miterlimit:2;">
    <g id="ArtBoard1" transform="matrix(0.999114,0,0,0.993779,0,-1.99149)">
        <rect x="0" y="2.004" width="470.833" height="174.181" style="fill:none;"/>
        <g transform="matrix(0.417036,0,0,0.419275,-0.417679,-1.45717)">
            <rect x="1.082" y="112.039" width="207.449" height="207.457" style="fill:rgb(238,42,86);"/>
        </g>
        <g transform="matrix(0.417036,0,0,0.419275,-0.417679,-1.45717)">
            <rect x="229.273" y="112.039" width="207.461" height="207.457" style="fill:rgb(238,42,86);"/>
        </g>
        <g transform="matrix(0.417036,0,0,0.419275,-0.417679,-1.45717)">
            <rect x="457.488" y="112.039" width="207.441" height="207.457" style="fill:rgb(238,42,86);"/>
        </g>
        <g transform="matrix(0.417036,0,0,0.419275,-0.417679,85.526)">
            <rect x="104.805" y="8.309" width="207.469" height="207.457" style="fill:rgb(238,42,86);"/>
        </g>
        <g transform="matrix(0.417036,0,0,0.419275,-0.417679,-88.4392)">
            <rect x="353.758" y="215.766" width="207.441" height="207.461" style="fill:rgb(238,42,86);"/>
        </g>
        <g transform="matrix(0.417036,0,0,0.419275,-0.417679,-1.60644)">
            <path d="M752.117,145.672L685.703,145.672L685.703,112.477L856.895,112.477L856.895,145.672L790.484,145.672L790.484,319.414L752.117,319.414L752.117,145.672" style="fill:white;fill-rule:nonzero;"/>
        </g>
        <g transform="matrix(0.417036,0,0,0.419275,-0.417679,0.567087)">
            <path d="M1049.36,238.191C1049.36,250.652 1047.13,261.902 1042.64,271.937C1038.16,281.973 1032.05,290.496 1024.3,297.5C1016.54,304.531 1007.39,309.922 996.785,313.711C986.188,317.519 974.676,319.414 962.234,319.414C949.812,319.414 938.301,317.519 927.691,313.711C917.09,309.922 907.859,304.531 900.027,297.5C892.176,290.496 886.055,281.973 881.688,271.937C877.293,261.902 875.113,250.652 875.113,238.191L875.113,107.293L913.496,107.293L913.496,236.871C913.496,241.926 914.297,247.23 915.938,252.777C917.566,258.32 920.27,263.434 924.062,268.105C927.84,272.773 932.852,276.617 939.09,279.629C945.312,282.637 953.023,284.148 962.234,284.148C971.434,284.148 979.156,282.637 985.391,279.629C991.621,276.617 996.641,272.773 1000.42,268.105C1004.2,263.434 1006.9,258.32 1008.54,252.777C1010.18,247.23 1011,241.926 1011,236.871L1011,107.293L1049.36,107.293L1049.36,238.191" style="fill:white;fill-rule:nonzero;"/>
        </g>
        <g transform="matrix(0.417036,0,0,0.419275,-0.417679,132.581)">
            <path d="M833.648,27.871C826.043,24.59 816.188,23.016 808.309,23.016C785.379,23.016 772.703,37.441 772.703,56.191C772.703,74.805 785.098,88.828 806.055,88.828C811.402,88.828 815.645,88.301 819.012,87.52L819.012,63.66L798.184,63.66L798.184,49.238L837.871,49.238L837.871,98.535C827.461,101.152 816.609,103.25 806.055,103.25C774.246,103.25 752.145,88.438 752.145,57.5C752.145,26.16 772.703,8.594 806.055,8.594C817.461,8.594 826.465,10.039 834.91,12.402L833.648,27.871" style="fill:white;fill-rule:nonzero;"/>
        </g>
        <g transform="matrix(0.417036,0,0,0.419275,-0.417679,141.982)">
            <path d="M857.281,11.738L874.043,11.738L874.043,27.078L874.324,27.078C875.164,20.781 882.898,10.164 894.156,10.164C895.996,10.164 897.977,10.164 899.93,10.695L899.93,28.398C898.25,27.481 894.871,26.953 891.48,26.953C876.148,26.953 876.148,44.785 876.148,54.473L876.148,79.258L857.281,79.258L857.281,11.738" style="fill:white;fill-rule:nonzero;"/>
        </g>
        <g transform="matrix(0.417036,0,0,0.419275,-0.417679,142.641)">
            <path d="M914.844,13.711C922.156,10.559 932.02,8.594 940.047,8.594C962.137,8.594 971.289,17.121 971.289,37.051L971.289,45.707C971.289,52.512 971.434,57.629 971.57,62.609C971.719,67.727 971.988,72.445 972.422,77.687L955.809,77.687C955.105,74.152 955.105,69.687 954.969,67.59L954.676,67.59C950.32,75.059 940.879,79.258 932.305,79.258C919.5,79.258 906.961,72.051 906.961,59.203C906.961,49.113 912.168,43.215 919.352,39.934C926.543,36.652 935.816,36 943.711,36L954.121,36C954.121,25.121 948.914,21.449 937.793,21.449C929.773,21.449 921.746,24.328 915.418,28.781L914.844,13.711ZM936.953,66.418C942.723,66.418 947.227,64.055 950.176,60.383C953.27,56.582 954.121,51.73 954.121,46.488L945.957,46.488C937.52,46.488 924.988,47.793 924.988,58.156C924.988,63.918 930.191,66.418 936.953,66.418" style="fill:white;fill-rule:nonzero;"/>
        </g>
        <g transform="matrix(0.417036,0,0,0.419275,-0.417679,142.642)">
            <path d="M986.773,10.164L1044.2,10.164L1044.2,24.586L1008.15,64.051L1045.47,64.051L1045.47,77.684L985.223,77.684L985.223,63.387L1021.95,23.797L986.773,23.797L986.773,10.164" style="fill:white;fill-rule:nonzero;"/>
        </g>
        <g transform="matrix(0.417036,0,0,0.419275,-0.417679,143.53)">
            <rect x="1060.73" y="8.309" width="69.113" height="69.113" style="fill:rgb(238,42,86);"/>
        </g>
    </g>
</svg>
